<svg width="67" height="58" viewBox="0 0 67 58" fill="none" xmlns="http://www.w3.org/2000/svg">
<path d="M52.4836 0H14.0316C3.726 0 0 3.10231 0 12.3706V45.7751C0 54.7537 3.726 58 14.0316 58C14.0316 58 42.0915 58 52.4836 58C62.8756 58 67 54.7537 67 45.7751C67 36.7964 67 12.3706 67 12.3706C67 3.10231 63.0108 0 52.4836 0ZM38.9642 16.7125H43.6839L28.4812 41.2875H23.0212L38.9642 16.7125ZM44.9649 20.6502L44.971 16.7403L60.0646 27.0403C60.043 28.2563 60.0862 29.6577 60.0646 30.8737L44.971 41.1738L44.9832 37.2283L57.3717 28.974L44.9649 20.6502ZM9.6283 28.974L22.0168 37.2283L22.029 41.1738L6.9354 30.8737C6.9138 29.6577 6.957 28.2563 6.9354 27.0403L22.029 16.7403L22.0351 20.6502L9.6283 28.974Z" fill="white"/>
</svg>
